<?xml version="1.0" encoding="UTF-8"?>
<svg width="70px" height="78px" viewBox="0 0 70 78" version="1.1" xmlns="http://www.w3.org/2000/svg"
>
    <!-- Generator: Sketch 49.3 (51167) - http://www.bohemiancoding.com/sketch -->
    <title>reduced_wifi_semaphore_white</title>
    <desc>Created with Sketch.</desc>
    <defs></defs>
    <g id="Page-1" stroke="none" stroke-width="1" fill="none" fill-rule="evenodd">
        <g id="jasmine_icon" transform="translate(-27.000000, -24.000000)">
            <g id="reduced_wifi_semaphore_white" transform="translate(27.000000, 24.000000)">
                <g id="semaphore">
                    <path d="M13,52 C5.8318,52 0,46.1682 0,39 C0,31.8318 5.8318,26 13,26 C20.1682,26 26,31.8318 26,39 C26,46.1682 20.1682,52 13,52 Z"
                          id="Path" fill="#FFFFFF"></path>
                    <path d="M13,26 C5.8318,26 0,20.1682 0,13 C0,5.8318 5.8318,0 13,0 C20.1682,0 26,5.8318 26,13 C26,20.1682 20.1682,26 13,26 Z"
                          id="Path" fill="#FFFFFF"></path>
                    <path d="M13,76 C19.0636305,76 24,71.0636305 24,65 C24,58.9363695 19.0636305,54 13,54 C6.9363695,54 2,58.9363695 2,65 C2,71.0636305 6.9363695,76 13,76 Z"
                          id="Path" stroke="#FFFFFF" stroke-width="4"></path>
                </g>
                <g id="wifi" transform="translate(36.000000, 0.000000)" fill="#FFFFFF" fill-rule="nonzero">
                    <path d="M18.1838392,0.549866881 C17.4546659,-0.18328896 16.2760533,-0.18328896 15.54688,0.549866881 C14.8177067,1.28302272 14.8177067,2.46807258 15.54688,3.20122842 C25.0429171,12.747255 30.2720781,25.4602898 30.2720781,39.0002344 C30.2720781,52.540179 25.0429171,65.2532138 15.54688,74.7992404 C14.8177067,75.5323962 14.8177067,76.717446 15.54688,77.4506019 C15.9105342,77.8162423 16.3879469,78 16.8653596,78 C17.3427723,78 17.820185,77.8162423 18.1838392,77.4506019 C28.384806,67.1957955 34,53.5414711 34,39.0002344 C34,24.4589977 28.384806,10.8046733 18.1838392,0.549866881 Z"
                          id="Shape"></path>
                    <path d="M10.2390834,10.5490702 C9.49725788,9.81697659 8.29819465,9.81697659 7.55636913,10.5490702 C6.81454362,11.2811639 6.81454362,12.4644968 7.55636913,13.1965905 C23.0910681,28.5274928 23.0910681,53.4729753 7.55636913,68.8038776 C6.81454362,69.5359713 6.81454362,70.7193042 7.55636913,71.4513979 C7.92633326,71.8165085 8.41202976,72 8.89772626,72 C9.38342276,72 9.86911926,71.8165085 10.2390834,71.4513979 C27.2536389,54.6619254 27.2536389,27.3404151 10.2390834,10.5490702 Z"
                          id="Shape"></path>
                    <path d="M3.06726055,17.5596544 C2.36478647,16.8134485 1.22932964,16.8134485 0.52685556,17.5596544 C-0.17561852,18.3058604 -0.17561852,19.512004 0.52685556,20.2582099 C11.035221,31.4207636 11.035221,49.5797135 0.52685556,60.7422672 C-0.17561852,61.4884731 -0.17561852,62.6946167 0.52685556,63.4408227 C0.877194296,63.8129714 1.33712617,64 1.79705805,64 C2.25698993,64 2.71692181,63.8129714 3.06726055,63.4408227 C8.82718868,57.3223157 12,49.1751211 12,40.4992843 C12,31.8234476 8.82718868,23.6781614 3.06726055,17.5596544 Z"
                          id="Shape"></path>
                </g>
            </g>
        </g>
    </g>
</svg>